<?xml version="1.0" encoding="UTF-8"?><svg id="Layer_2" xmlns="http://www.w3.org/2000/svg" xmlns:xlink="http://www.w3.org/1999/xlink" viewBox="0 0 156.06 71.7"><defs><style>.cls-1{fill:url(#Lumifi_Logo_Gradient);stroke-width:0px;}</style><linearGradient id="Lumifi_Logo_Gradient" x1="78.03" y1="4520.7" x2="78.03" y2="4448.8" gradientTransform="translate(0 4520.57) scale(1 -1)" gradientUnits="userSpaceOnUse"><stop offset="0" stop-color="#0067b9"/><stop offset=".49" stop-color="#41b6e6"/><stop offset="1" stop-color="#0067b9"/></linearGradient></defs><g id="Lumifi_Artwork"><path class="cls-1" d="m125.15,4.77C122.15,1.77,118.09.09,113.86.09L80.42,0c-4.39-.01-8.61,1.73-11.72,4.83l-31.28,31.28,26.8,26.8h-12.22l-27.02-27.02L60.8.09l-18.29.06c-4.21.02-8.25,1.7-11.23,4.68L0,36.11l30.91,30.91c2.99,2.99,7.05,4.68,11.29,4.68l33.8-.06c4.37,0,8.55-1.75,11.64-4.83l31.12-31.12-26.88-26.88h12.09l27.1,27.1-35.8,35.8,18.29-.06c4.21-.02,8.25-1.7,11.23-4.67l31.28-31.28-30.91-30.91h0Zm-46.89,58.31c0-14.91-12.09-27-27-27,14.91,0,27-12.09,27-27,0,14.91,12.09,27,27,27-14.91,0-27,12.09-27,27Z"/></g></svg>